<svg xmlns="http://www.w3.org/2000/svg" width="160" height="160" viewBox="0 0 160 160" fill="none">
  <path d="M23 2H137L158 23V137L137 158H23L2 137V23Z" stroke="#36cde9" stroke-width="1"/>
  <path d="M26 6H134L154 26V134L134 154H26L6 134V26Z" stroke="#7596af" stroke-width="1"/>
  <path d="M30 11H130L149 30V130L130 149H30L11 130V30Z" stroke="#ffcf6a" stroke-width="7"/>
  <path d="M31 16H129L144 31V129L129 144H31L16 129V31Z" stroke="#e5a844" stroke-opacity=".4"/>
  <path d="M21 2H45M2 21V45M115 2H139L158 21V45M158 115V139L139 158H115M45 158H21L2 139V115" stroke="#73ebff" stroke-width="2"/>
  <path d="M34 11H52M108 11H130L149 30V48M149 108V130L130 149H108M52 149H30L11 130V108" stroke="#ffe9a4" stroke-width="8"/>
  <path d="M53 2H72M88 158H107" stroke="#00a8db" stroke-width="3"/>
  <path d="M2 54V105M158 54V105" stroke="#0c384a" stroke-width="2"/>
</svg>
